<svg width="132" height="132" viewBox="0 0 132 132" fill="none" xmlns="http://www.w3.org/2000/svg">
<path d="M101.062 -0.0001297V31.0474L132 31.0474V-0.0001297L101.062 -0.0001297Z" fill="#0078BF"/>
<path d="M11.048 46.3789L11.016 46.3469L0 57.3736L1.40699 58.782L21.3765 78.7709L32.3925 67.7442L32.4405 67.7922C41.4899 59.4382 55.4317 59.4541 63.9855 68.0162C72.7632 76.8024 72.5713 91.286 63.5698 100.312C63.4099 100.472 63.25 100.6 63.0901 100.76L53.2254 110.635L73.2267 130.656C73.2267 130.656 73.2587 130.64 73.2747 130.624L74.6497 132L84.4826 122.158C84.6424 121.982 84.8024 121.854 84.9623 121.693C106.067 100.568 106.515 66.6239 85.9536 46.0429C65.6163 25.6858 32.2325 25.9099 11.0798 46.3629L11.048 46.3789Z" fill="#0078BF"/>
</svg>
