<svg width="167" height="146" viewBox="0 0 167 146" fill="none" xmlns="http://www.w3.org/2000/svg">
<path d="M119.384 11.0496C126.275 9.03049 133.655 8.95699 140.591 10.8373C147.514 12.714 153.683 16.4537 158.323 21.5838L142.414 33.992C140.413 31.7849 137.755 30.1762 134.775 29.3683C131.783 28.5574 128.6 28.5893 125.628 29.46C122.656 30.3309 120.028 32.002 118.076 34.2618C116.125 36.5217 114.938 39.2696 114.666 42.1572C114.394 45.0449 115.049 47.9431 116.548 50.4845C118.048 53.0259 120.323 55.0971 123.088 56.4354C125.852 57.7737 128.981 58.319 132.079 58.0039C135.165 57.6899 138.082 56.5341 140.464 54.684L153.811 69.4751L153.801 69.4837L153.829 69.5129C155.615 71.3908 157.181 73.4558 158.491 75.676C161.965 81.5642 163.482 88.278 162.852 94.9678C162.221 101.658 159.471 108.025 154.949 113.262C150.427 118.5 144.335 122.373 137.445 124.392C130.554 126.412 123.173 126.486 116.238 124.606C109.314 122.729 103.145 118.989 98.5048 113.858L114.414 101.449C116.415 103.657 119.072 105.267 122.053 106.075C125.045 106.886 128.228 106.853 131.201 105.982C134.173 105.111 136.801 103.44 138.752 101.18C140.704 98.9202 141.891 96.1724 142.163 93.2847C142.435 90.3972 141.78 87.4996 140.281 84.9584C138.781 82.417 136.505 80.3458 133.74 79.0076C130.976 77.6695 127.847 77.1239 124.75 77.439C121.664 77.7529 118.746 78.907 116.363 80.757L103.017 65.9669L103.027 65.9593L103 65.9299C101.21 64.0477 99.3379 62.3091 98.0294 60.0911C94.5565 54.204 93.3457 47.1654 93.9762 40.4742C94.6065 33.7842 97.3575 27.4182 101.88 22.1806C106.402 16.9431 112.494 13.0688 119.384 11.0496Z" fill="#0078BF" stroke="#0078BF" stroke-width="0.073128"/>
<mask id="path-2-outside-1_679_1639" maskUnits="userSpaceOnUse" x="-4.55975" y="-4.07184" width="163.185" height="153.668" fill="black">
<rect fill="white" x="-4.55975" y="-4.07184" width="163.185" height="153.668"/>
<path d="M94.3359 20.0437C100.26 23.8995 104.821 29.3021 107.443 35.5681C110.065 41.8341 110.629 48.6822 109.065 55.2464C107.822 60.4589 105.28 65.3056 101.671 69.4092C106.221 72.3844 110 76.2981 112.695 80.8673C116.173 86.7621 117.693 93.4833 117.062 100.181C116.431 106.879 113.677 113.252 109.15 118.495C104.623 123.738 98.5256 127.615 91.6285 129.636C84.7313 131.657 77.3441 131.732 70.4015 129.849C63.4591 127.967 57.2726 124.214 52.6248 119.063L68.5915 106.61C70.5901 108.824 73.2507 110.438 76.2359 111.247C79.2212 112.057 82.3977 112.025 85.3635 111.156C88.329 110.287 90.9508 108.62 92.8973 106.365C94.844 104.111 96.0286 101.37 96.2999 98.49C96.5712 95.61 95.9176 92.7193 94.4222 90.1845C92.9268 87.6499 90.6558 85.5847 87.8978 84.2495C85.1398 82.9144 82.0177 82.3692 78.9266 82.6837C75.8356 82.9982 72.9142 84.1577 70.532 86.0156L66.2122 81.2283C63.6232 80.748 61.0846 80.0066 58.6435 79.0082L60.5577 74.9618L57.1375 71.1714C59.3882 69.416 61.8451 67.9276 64.452 66.7313L67.0357 61.272C69.882 62.4361 73.0359 62.7897 76.0981 62.2875C79.1604 61.7852 81.9937 60.4493 84.2398 58.4499C86.4859 56.4505 88.0442 53.8769 88.717 51.0543C89.3897 48.2318 89.1469 45.2873 88.0196 42.5929C86.8923 39.8985 84.9312 37.5747 82.3838 35.9167C79.8364 34.2587 76.8167 33.3408 73.7079 33.278C70.5992 33.2153 67.5405 34.0108 64.9182 35.5643C62.2958 37.1178 60.2273 39.3594 58.9751 42.0056L39.8979 34.2039C42.8098 28.0496 47.6194 22.8364 53.7181 19.2234C59.8169 15.6104 66.9311 13.7598 74.1611 13.9059C81.391 14.0519 88.4118 16.1879 94.3359 20.0437Z"/>
</mask>
<path d="M94.3359 20.0437C100.26 23.8995 104.821 29.3021 107.443 35.5681C110.065 41.8341 110.629 48.6822 109.065 55.2464C107.822 60.4589 105.28 65.3056 101.671 69.4092C106.221 72.3844 110 76.2981 112.695 80.8673C116.173 86.7621 117.693 93.4833 117.062 100.181C116.431 106.879 113.677 113.252 109.15 118.495C104.623 123.738 98.5256 127.615 91.6285 129.636C84.7313 131.657 77.3441 131.732 70.4015 129.849C63.4591 127.967 57.2726 124.214 52.6248 119.063L68.5915 106.61C70.5901 108.824 73.2507 110.438 76.2359 111.247C79.2212 112.057 82.3977 112.025 85.3635 111.156C88.329 110.287 90.9508 108.62 92.8973 106.365C94.844 104.111 96.0286 101.37 96.2999 98.49C96.5712 95.61 95.9176 92.7193 94.4222 90.1845C92.9268 87.6499 90.6558 85.5847 87.8978 84.2495C85.1398 82.9144 82.0177 82.3692 78.9266 82.6837C75.8356 82.9982 72.9142 84.1577 70.532 86.0156L66.2122 81.2283C63.6232 80.748 61.0846 80.0066 58.6435 79.0082L60.5577 74.9618L57.1375 71.1714C59.3882 69.416 61.8451 67.9276 64.452 66.7313L67.0357 61.272C69.882 62.4361 73.0359 62.7897 76.0981 62.2875C79.1604 61.7852 81.9937 60.4493 84.2398 58.4499C86.4859 56.4505 88.0442 53.8769 88.717 51.0543C89.3897 48.2318 89.1469 45.2873 88.0196 42.5929C86.8923 39.8985 84.9312 37.5747 82.3838 35.9167C79.8364 34.2587 76.8167 33.3408 73.7079 33.278C70.5992 33.2153 67.5405 34.0108 64.9182 35.5643C62.2958 37.1178 60.2273 39.3594 58.9751 42.0056L39.8979 34.2039C42.8098 28.0496 47.6194 22.8364 53.7181 19.2234C59.8169 15.6104 66.9311 13.7598 74.1611 13.9059C81.391 14.0519 88.4118 16.1879 94.3359 20.0437Z" fill="#0078BF"/>
<path d="M94.3359 20.0437L95.7914 18.0842L95.7914 18.0842L94.3359 20.0437ZM107.443 35.5681L109.838 34.7217L109.838 34.7216L107.443 35.5681ZM109.065 55.2464L111.576 55.7938L111.576 55.7938L109.065 55.2464ZM101.671 69.4092L99.6734 67.8761L97.9213 69.8683L100.211 71.3656L101.671 69.4092ZM112.695 80.8673L114.946 79.7328L114.946 79.7328L112.695 80.8673ZM117.062 100.181L119.625 100.42L119.625 100.42L117.062 100.181ZM109.15 118.495L111.163 120.011L111.163 120.011L109.15 118.495ZM91.6285 129.636L92.428 131.924L92.428 131.924L91.6285 129.636ZM70.4015 129.849L69.7113 132.15L69.7113 132.15L70.4015 129.849ZM52.6248 119.063L50.9591 117.217L48.9986 118.746L50.6643 120.592L52.6248 119.063ZM68.5915 106.61L70.552 105.08L68.8863 103.235L66.9258 104.764L68.5915 106.61ZM76.2359 111.247L75.5457 113.548L75.5457 113.548L76.2359 111.247ZM85.3635 111.156L86.163 113.443L86.163 113.443L85.3635 111.156ZM92.8973 106.365L94.9096 107.882L94.9096 107.882L92.8973 106.365ZM96.2999 98.49L98.8627 98.7291L98.8627 98.729L96.2999 98.49ZM94.4222 90.1845L96.6731 89.0501L96.673 89.05L94.4222 90.1845ZM87.8978 84.2495L89.0614 82.1254L89.0614 82.1253L87.8978 84.2495ZM78.9266 82.6837L78.616 80.3008L78.6159 80.3008L78.9266 82.6837ZM70.532 86.0156L68.5715 87.5448L70.2371 89.3907L72.1977 87.8616L70.532 86.0156ZM66.2122 81.2283L68.1727 79.6991L67.5816 79.0441L66.6842 78.8776L66.2122 81.2283ZM58.6435 79.0082L56.2874 78.0186L55.2442 80.2237L57.6343 81.2012L58.6435 79.0082ZM60.5577 74.9618L62.9139 75.9514L63.5595 74.5867L62.5183 73.4327L60.5577 74.9618ZM57.1375 71.1714L55.4718 69.3254L53.5113 70.8546L55.1769 72.7005L57.1375 71.1714ZM64.452 66.7313L65.6118 68.8842L66.4368 68.5056L66.808 67.7212L64.452 66.7313ZM67.0357 61.272L68.045 59.0791L65.7025 58.121L64.6798 60.2821L67.0357 61.272ZM76.0981 62.2875L76.5746 64.6484L76.5747 64.6484L76.0981 62.2875ZM84.2398 58.4499L86.0289 60.1929L86.029 60.1929L84.2398 58.4499ZM88.717 51.0543L91.2287 51.6017L91.2287 51.6017L88.717 51.0543ZM88.0196 42.5929L90.415 41.7465L90.415 41.7465L88.0196 42.5929ZM82.3838 35.9167L83.8392 33.9572L83.8392 33.9572L82.3838 35.9167ZM73.7079 33.278L73.7316 30.8815L73.7316 30.8815L73.7079 33.278ZM64.9182 35.5643L63.5188 33.5368L63.5187 33.5369L64.9182 35.5643ZM58.9751 42.0056L57.9659 44.1986L60.3085 45.1567L61.3312 42.9954L58.9751 42.0056ZM39.8979 34.2039L37.5418 33.2141L36.4984 35.4194L38.8887 36.3969L39.8979 34.2039ZM53.7181 19.2234L52.3187 17.196L52.3186 17.196L53.7181 19.2234ZM74.1611 13.9059L74.1848 11.5094L74.1848 11.5094L74.1611 13.9059ZM94.3359 20.0437L92.8805 22.0032C98.3797 25.5825 102.614 30.5972 105.048 36.4145L107.443 35.5681L109.838 34.7216C107.029 28.007 102.14 22.2166 95.7914 18.0842L94.3359 20.0437ZM107.443 35.5681L105.048 36.4145C107.482 42.2322 108.008 48.595 106.553 54.699L109.065 55.2464L111.576 55.7938C113.251 48.7695 112.647 41.436 109.838 34.7217L107.443 35.5681ZM109.065 55.2464L106.553 54.699C105.398 59.5459 103.033 64.0558 99.6734 67.8761L101.671 69.4092L103.669 70.9423C107.528 66.5553 110.247 61.3719 111.576 55.7938L109.065 55.2464ZM101.671 69.4092L100.211 71.3656C104.435 74.1276 107.942 77.7605 110.444 82.0018L112.695 80.8673L114.946 79.7328C112.057 74.8357 108.008 70.6412 103.131 67.4528L101.671 69.4092ZM112.695 80.8673L110.444 82.0017C113.673 87.4737 115.086 93.7163 114.499 99.9419L117.062 100.181L119.625 100.42C120.3 93.2503 118.673 86.0505 114.946 79.7328L112.695 80.8673ZM117.062 100.181L114.499 99.9419C113.913 106.168 111.352 112.097 107.138 116.978L109.15 118.495L111.163 120.011C116.002 114.406 118.949 107.589 119.625 100.42L117.062 100.181ZM109.15 118.495L107.138 116.978C102.924 121.859 97.2475 125.468 90.829 127.349L91.6285 129.636L92.428 131.924C99.8037 129.762 106.323 125.617 111.163 120.011L109.15 118.495ZM91.6285 129.636L90.829 127.349C84.4107 129.23 77.5418 129.297 71.0918 127.548L70.4015 129.849L69.7113 132.15C77.1464 134.166 85.0519 134.085 92.428 131.924L91.6285 129.636ZM70.4015 129.849L71.0918 127.548C64.6422 125.8 58.8989 122.314 54.5853 117.534L52.6248 119.063L50.6643 120.592C55.6463 126.113 62.2759 130.135 69.7113 132.15L70.4015 129.849ZM52.6248 119.063L54.2904 120.909L70.2571 108.456L68.5915 106.61L66.9258 104.764L50.9591 117.217L52.6248 119.063ZM68.5915 106.61L66.631 108.139C68.964 110.724 72.0679 112.605 75.5457 113.548L76.2359 111.247L76.9262 108.946C74.4334 108.271 72.2161 106.925 70.552 105.08L68.5915 106.61ZM76.2359 111.247L75.5457 113.548C79.0235 114.491 82.7182 114.453 86.163 113.443L85.3635 111.156L84.564 108.868C82.0772 109.597 79.419 109.622 76.9262 108.946L76.2359 111.247ZM85.3635 111.156L86.163 113.443C89.6071 112.434 92.6502 110.499 94.9096 107.882L92.8973 106.365L90.8851 104.849C89.2514 106.741 87.051 108.14 84.5639 108.868L85.3635 111.156ZM92.8973 106.365L94.9096 107.882C97.169 105.265 98.5469 102.081 98.8627 98.7291L96.2999 98.49L93.7372 98.2509C93.5103 100.659 92.519 102.956 90.8851 104.849L92.8973 106.365ZM96.2999 98.49L98.8627 98.729C99.1785 95.3771 98.418 92.0078 96.6731 89.0501L94.4222 90.1845L92.1714 91.319C93.4172 93.4309 93.964 95.8429 93.7372 98.2509L96.2999 98.49ZM94.4222 90.1845L96.673 89.05C94.9277 86.0917 92.2775 83.6823 89.0614 82.1254L87.8978 84.2495L86.7343 86.3737C89.0342 87.4871 90.9259 89.208 92.1714 91.3191L94.4222 90.1845ZM87.8978 84.2495L89.0614 82.1253C85.8453 80.5685 82.2097 79.9352 78.616 80.3008L78.9266 82.6837L79.2372 85.0666C81.8256 84.8033 84.4342 85.2603 86.7343 86.3737L87.8978 84.2495ZM78.9266 82.6837L78.6159 80.3008C75.0229 80.6663 71.6309 82.0135 68.8664 84.1697L70.532 86.0156L72.1977 87.8616C74.1976 86.3018 76.6483 85.33 79.2373 85.0666L78.9266 82.6837ZM70.532 86.0156L72.4926 84.4865L68.1727 79.6991L66.2122 81.2283L64.2517 82.7574L68.5715 87.5448L70.532 86.0156ZM66.2122 81.2283L66.6842 78.8776C64.2779 78.4312 61.9196 77.7423 59.6528 76.8152L58.6435 79.0082L57.6343 81.2012C60.2496 82.2708 62.9685 83.0648 65.7402 83.5789L66.2122 81.2283ZM58.6435 79.0082L60.9997 79.9978L62.9139 75.9514L60.5577 74.9618L58.2016 73.9722L56.2874 78.0186L58.6435 79.0082ZM60.5577 74.9618L62.5183 73.4327L59.098 69.6423L57.1375 71.1714L55.1769 72.7005L58.5972 76.491L60.5577 74.9618ZM57.1375 71.1714L58.8031 73.0173C60.8989 71.3828 63.186 69.9975 65.6118 68.8842L64.452 66.7313L63.2923 64.5783C60.5042 65.8578 57.8774 67.4492 55.4718 69.3254L57.1375 71.1714ZM64.452 66.7313L66.808 67.7212L69.3917 62.262L67.0357 61.272L64.6798 60.2821L62.0961 65.7413L64.452 66.7313ZM67.0357 61.272L66.0265 63.465C69.3444 64.822 73.0156 65.2321 76.5746 64.6484L76.0981 62.2875L75.6216 59.9266C73.0562 60.3474 70.4196 60.0503 68.045 59.0791L67.0357 61.272ZM76.0981 62.2875L76.5747 64.6484C80.1336 64.0647 83.4227 62.5129 86.0289 60.1929L84.2398 58.4499L82.4506 56.7069C80.5647 58.3857 78.1873 59.5058 75.6216 59.9266L76.0981 62.2875ZM84.2398 58.4499L86.029 60.1929C88.6353 57.8728 90.4463 54.8842 91.2287 51.6017L88.717 51.0543L86.2053 50.507C85.6421 52.8697 84.3364 55.0282 82.4506 56.7069L84.2398 58.4499ZM88.717 51.0543L91.2287 51.6017C92.0111 48.3191 91.7298 44.8892 90.415 41.7465L88.0196 42.5929L85.6243 43.4393C86.564 45.6853 86.7683 48.1446 86.2053 50.507L88.717 51.0543ZM88.0196 42.5929L90.415 41.7465C89.1001 38.6037 86.8118 35.892 83.8392 33.9572L82.3838 35.9167L80.9283 37.8762C83.0506 39.2575 84.6846 41.1933 85.6243 43.4393L88.0196 42.5929ZM82.3838 35.9167L83.8392 33.9572C80.8668 32.0226 77.348 30.9546 73.7316 30.8815L73.7079 33.278L73.6842 35.6745C76.2855 35.727 78.8059 36.4948 80.9283 37.8762L82.3838 35.9167ZM73.7079 33.278L73.7316 30.8815C70.1154 30.8086 66.5622 31.7339 63.5188 33.5368L64.9182 35.5643L66.3176 37.5917C68.5187 36.2878 71.083 35.622 73.6842 35.6745L73.7079 33.278ZM64.9182 35.5643L63.5187 33.5369C60.4755 35.3397 58.0738 37.9415 56.6191 41.0159L58.9751 42.0056L61.3312 42.9954C62.3808 40.7773 64.1161 38.8959 66.3176 37.5917L64.9182 35.5643ZM58.9751 42.0056L59.9843 39.8126L40.9071 32.0109L39.8979 34.2039L38.8887 36.3969L57.9659 44.1986L58.9751 42.0056ZM39.8979 34.2039L42.2539 35.1936C44.9634 29.4673 49.4399 24.6144 55.1176 21.2508L53.7181 19.2234L52.3186 17.196C45.7989 21.0584 40.6562 26.632 37.5418 33.2141L39.8979 34.2039ZM53.7181 19.2234L55.1175 21.2508C60.7952 17.8873 67.4149 16.1665 74.1374 16.3023L74.1611 13.9059L74.1848 11.5094C66.4473 11.3531 58.8386 13.3335 52.3187 17.196L53.7181 19.2234ZM74.1611 13.9059L74.1374 16.3023C80.8592 16.4381 87.3809 18.4237 92.8805 22.0032L94.3359 20.0437L95.7914 18.0842C89.4426 13.952 81.9227 11.6657 74.1848 11.5094L74.1611 13.9059Z" fill="#0078BF" mask="url(#path-2-outside-1_679_1639)"/>
</svg>
