<svg width="167" height="146" viewBox="0 0 167 146" fill="none" xmlns="http://www.w3.org/2000/svg">
<path d="M119.384 11.0496C126.06 9.09354 133.194 8.96342 139.94 10.6667L140.591 10.8373C147.514 12.714 153.683 16.4537 158.323 21.5838L142.414 33.992C140.538 31.9234 138.086 30.3807 135.332 29.53L134.775 29.3683C131.97 28.608 128.997 28.5892 126.188 29.3073L125.628 29.46C122.842 30.2766 120.357 31.7967 118.45 33.8457L118.076 34.2618C116.247 36.3806 115.089 38.9284 114.727 41.6181L114.666 42.1572C114.411 44.8645 114.971 47.5811 116.277 50.0041L116.548 50.4845C117.954 52.8671 120.042 54.8359 122.575 56.1753L123.088 56.4354C125.679 57.6901 128.592 58.2482 131.498 58.0534L132.079 58.0039C135.165 57.6899 138.082 56.5341 140.464 54.684L153.811 69.4751L153.801 69.4837L153.829 69.5129C155.392 71.1562 156.786 72.9428 157.988 74.8513L158.491 75.676C161.964 81.5642 163.482 88.278 162.852 94.9678C162.241 101.449 159.641 107.627 155.368 112.768L154.949 113.262C150.568 118.336 144.714 122.13 138.088 124.198L137.444 124.392C130.769 126.348 123.634 126.479 116.889 124.776L116.237 124.606C109.314 122.729 103.145 118.989 98.5048 113.858L114.414 101.449C116.29 103.518 118.742 105.062 121.496 105.913L122.053 106.075C124.858 106.835 127.831 106.854 130.641 106.136L131.2 105.982C133.987 105.165 136.471 103.646 138.378 101.597L138.752 101.18C140.582 99.0614 141.739 96.5143 142.101 93.8249L142.163 93.2847C142.435 90.3972 141.78 87.4996 140.281 84.9584C138.875 82.5759 136.787 80.607 134.253 79.2675L133.74 79.0076C131.149 77.7531 128.237 77.1948 125.331 77.3895L124.75 77.439C121.664 77.7529 118.746 78.907 116.363 80.757L103.017 65.9669L103.027 65.9593L103 65.9299C101.322 64.1655 99.5721 62.5276 98.2818 60.5024L98.0293 60.0911C94.665 54.388 93.4238 47.6045 93.9227 41.1028L93.9761 40.4742C94.5868 33.9933 97.1868 27.816 101.46 22.6746L101.88 22.1806C106.261 17.1068 112.114 13.3127 118.74 11.2447L119.384 11.0496Z" fill="#0078BF" stroke="#0078BF" stroke-width="0.073128"/>
<mask id="path-2-outside-1_312_295" maskUnits="userSpaceOnUse" x="-4.55969" y="-4.07233" width="163.185" height="153.668" fill="black">
<rect fill="white" x="-4.55969" y="-4.07233" width="163.185" height="153.668"/>
<path fill-rule="evenodd" clip-rule="evenodd" d="M66.2126 81.229C63.6234 80.7487 61.0849 80.0067 58.6437 79.0083L60.558 74.9624L57.137 71.1711C59.3877 69.4156 61.8454 67.9282 64.4524 66.7317L67.0358 61.2719C69.8822 62.436 73.036 62.7893 76.0983 62.287C79.1606 61.7847 81.994 60.4494 84.2401 58.45C86.4861 56.4506 88.0441 53.8769 88.7168 51.0543C89.3896 48.2317 89.147 45.287 88.0197 42.5926C86.8924 39.8982 84.931 37.575 82.3836 35.917C79.8362 34.259 76.8171 33.3405 73.7082 33.2777C70.5993 33.2149 67.5402 34.0106 64.9178 35.5642C62.2953 37.1178 60.2272 39.3595 58.9751 42.0058L39.8979 34.2035C42.8098 28.0493 47.6193 22.836 53.718 19.223C59.8168 15.61 66.931 13.7595 74.161 13.9055C81.391 14.0516 88.412 16.1876 94.3362 20.0435C100.26 23.8994 104.822 29.302 107.443 35.568C110.065 41.8341 110.629 48.6822 109.065 55.2464C107.822 60.4587 105.282 65.3062 101.673 69.4097C106.222 72.3848 110 76.298 112.695 80.8667C116.173 86.7616 117.692 93.483 117.061 100.181C116.43 106.879 113.677 113.252 109.15 118.495C104.623 123.738 98.5255 127.615 91.6283 129.636C84.7311 131.657 77.3442 131.732 70.4016 129.85C63.4591 127.968 57.2727 124.214 52.6248 119.063L68.5917 106.609C70.5903 108.824 73.2504 110.438 76.2357 111.248C79.221 112.057 82.3974 112.025 85.3632 111.156C88.329 110.287 90.951 108.62 92.8976 106.365C94.8443 104.111 96.0281 101.37 96.2995 98.49C96.5708 95.6099 95.9175 92.7197 94.4221 90.1849C92.9266 87.6501 90.6563 85.5845 87.8982 84.2493C85.1401 82.914 82.0181 82.3692 78.9269 82.6836C75.8357 82.9981 72.9143 84.1577 70.5319 86.0158L66.2126 81.229Z"/>
</mask>
<path fill-rule="evenodd" clip-rule="evenodd" d="M66.2126 81.229C63.6234 80.7487 61.0849 80.0067 58.6437 79.0083L60.558 74.9624L57.137 71.1711C59.3877 69.4156 61.8454 67.9282 64.4524 66.7317L67.0358 61.2719C69.8822 62.436 73.036 62.7893 76.0983 62.287C79.1606 61.7847 81.994 60.4494 84.2401 58.45C86.4861 56.4506 88.0441 53.8769 88.7168 51.0543C89.3896 48.2317 89.147 45.287 88.0197 42.5926C86.8924 39.8982 84.931 37.575 82.3836 35.917C79.8362 34.259 76.8171 33.3405 73.7082 33.2777C70.5993 33.2149 67.5402 34.0106 64.9178 35.5642C62.2953 37.1178 60.2272 39.3595 58.9751 42.0058L39.8979 34.2035C42.8098 28.0493 47.6193 22.836 53.718 19.223C59.8168 15.61 66.931 13.7595 74.161 13.9055C81.391 14.0516 88.412 16.1876 94.3362 20.0435C100.26 23.8994 104.822 29.302 107.443 35.568C110.065 41.8341 110.629 48.6822 109.065 55.2464C107.822 60.4587 105.282 65.3062 101.673 69.4097C106.222 72.3848 110 76.298 112.695 80.8667C116.173 86.7616 117.692 93.483 117.061 100.181C116.43 106.879 113.677 113.252 109.15 118.495C104.623 123.738 98.5255 127.615 91.6283 129.636C84.7311 131.657 77.3442 131.732 70.4016 129.85C63.4591 127.968 57.2727 124.214 52.6248 119.063L68.5917 106.609C70.5903 108.824 73.2504 110.438 76.2357 111.248C79.221 112.057 82.3974 112.025 85.3632 111.156C88.329 110.287 90.951 108.62 92.8976 106.365C94.8443 104.111 96.0281 101.37 96.2995 98.49C96.5708 95.6099 95.9175 92.7197 94.4221 90.1849C92.9266 87.6501 90.6563 85.5845 87.8982 84.2493C85.1401 82.914 82.0181 82.3692 78.9269 82.6836C75.8357 82.9981 72.9143 84.1577 70.5319 86.0158L66.2126 81.229Z" fill="#0078BF"/>
<path d="M58.6437 79.0083L56.2876 78.0186L55.2442 80.2237L57.6344 81.2013L58.6437 79.0083ZM66.2126 81.229L68.1731 79.6998L67.582 79.0447L66.6845 78.8783L66.2126 81.229ZM60.558 74.9624L62.9141 75.9522L63.5599 74.5873L62.5186 73.4333L60.558 74.9624ZM57.137 71.1711L55.4713 69.3251L53.5108 70.8543L55.1764 72.7002L57.137 71.1711ZM64.4524 66.7317L65.6122 68.8847L66.4373 68.506L66.8085 67.7215L64.4524 66.7317ZM67.0358 61.2719L68.0451 59.0789L65.7024 58.1208L64.6797 60.2821L67.0358 61.2719ZM76.0983 62.287L75.6217 59.9261L75.6217 59.9261L76.0983 62.287ZM84.2401 58.45L86.0292 60.193L84.2401 58.45ZM88.7168 51.0543L86.2051 50.5069L86.2051 50.5069L88.7168 51.0543ZM88.0197 42.5926L85.6243 43.439L88.0197 42.5926ZM73.7082 33.2777L73.732 30.8812L73.7082 33.2777ZM64.9178 35.5642L63.5183 33.5368L64.9178 35.5642ZM58.9751 42.0058L57.9658 44.1988L60.3085 45.1569L61.3312 42.9956L58.9751 42.0058ZM39.8979 34.2035L37.5418 33.2138L36.4984 35.419L38.8886 36.3965L39.8979 34.2035ZM53.718 19.223L52.3186 17.1956L53.718 19.223ZM74.161 13.9055L74.1847 11.5091L74.161 13.9055ZM94.3362 20.0435L95.7917 18.084L94.3362 20.0435ZM107.443 35.568L109.839 34.7216L109.839 34.7216L107.443 35.568ZM109.065 55.2464L111.576 55.7938L111.576 55.7938L109.065 55.2464ZM101.673 69.4097L99.6752 67.8767L97.9232 69.8687L100.213 71.3661L101.673 69.4097ZM112.695 80.8667L114.946 79.7322L114.946 79.7322L112.695 80.8667ZM117.061 100.181L119.624 100.42L117.061 100.181ZM109.15 118.495L107.138 116.978L109.15 118.495ZM91.6283 129.636L92.4278 131.924L91.6283 129.636ZM70.4016 129.85L69.7114 132.151L69.7114 132.151L70.4016 129.85ZM52.6248 119.063L50.9592 117.217L48.9986 118.746L50.6643 120.592L52.6248 119.063ZM68.5917 106.609L70.5523 105.08L68.8866 103.234L66.9261 104.763L68.5917 106.609ZM76.2357 111.248L75.5455 113.549L75.5455 113.549L76.2357 111.248ZM85.3632 111.156L86.1627 113.443L86.1627 113.443L85.3632 111.156ZM92.8976 106.365L94.9099 107.882L92.8976 106.365ZM96.2995 98.49L93.7367 98.2509L93.7367 98.2509L96.2995 98.49ZM94.4221 90.1849L92.1712 91.3194L92.1712 91.3194L94.4221 90.1849ZM87.8982 84.2493L86.7346 86.3734L86.7347 86.3734L87.8982 84.2493ZM78.9269 82.6836L79.2375 85.0666L79.2375 85.0666L78.9269 82.6836ZM70.5319 86.0158L68.5714 87.5449L70.2371 89.3909L72.1976 87.8617L70.5319 86.0158ZM57.6344 81.2013C60.2496 82.2708 62.9683 83.0654 65.7406 83.5796L66.6845 78.8783C64.2785 78.432 61.9203 77.7426 59.653 76.8153L57.6344 81.2013ZM58.202 73.9727L56.2876 78.0186L60.9998 79.9981L62.9141 75.9522L58.202 73.9727ZM55.1764 72.7002L58.5975 76.4916L62.5186 73.4333L59.0975 69.6419L55.1764 72.7002ZM63.2927 64.5788C60.5052 65.8581 57.8775 67.4484 55.4713 69.3251L58.8026 73.017C60.8979 71.3828 63.1856 69.9983 65.6122 68.8847L63.2927 64.5788ZM64.6797 60.2821L62.0964 65.742L66.8085 67.7215L69.3919 62.2616L64.6797 60.2821ZM75.6217 59.9261C73.056 60.3469 70.4196 60.05 68.0451 59.0789L66.0265 63.4649C69.3448 64.822 73.0159 65.2316 76.5748 64.6479L75.6217 59.9261ZM82.4509 56.707C80.5653 58.3855 78.1879 59.5052 75.6217 59.9261L76.5748 64.6479C80.1334 64.0642 83.4227 62.5133 86.0292 60.193L82.4509 56.707ZM86.2051 50.5069C85.6419 52.8699 84.3365 55.0285 82.4509 56.707L86.0292 60.193C88.6358 57.8727 90.4462 54.8839 91.2285 51.6016L86.2051 50.5069ZM85.6243 43.439C86.564 45.6849 86.7682 48.1443 86.2051 50.5069L91.2285 51.6016C92.011 48.319 91.73 44.889 90.415 41.7462L85.6243 43.439ZM80.9281 37.8765C83.0507 39.258 84.6847 41.1933 85.6243 43.439L90.415 41.7462C89.1 38.603 86.8113 35.8921 83.839 33.9575L80.9281 37.8765ZM73.6845 35.6741C76.2854 35.7267 78.8053 36.4948 80.9281 37.8765L83.839 33.9575C80.867 32.0231 77.3489 30.9543 73.732 30.8812L73.6845 35.6741ZM66.3172 37.5916C68.5185 36.2875 71.0832 35.6216 73.6845 35.6741L73.732 30.8812C70.1155 30.8082 66.562 31.7337 63.5183 33.5368L66.3172 37.5916ZM61.3312 42.9956C62.3809 40.7771 64.1158 38.8958 66.3172 37.5916L63.5183 33.5368C60.4748 35.3398 58.0736 37.9419 56.619 41.0161L61.3312 42.9956ZM38.8886 36.3965L57.9658 44.1988L59.9844 39.8128L40.9072 32.0106L38.8886 36.3965ZM52.3186 17.1956C45.7988 21.058 40.6562 26.6316 37.5418 33.2138L42.254 35.1933C44.9634 29.4669 49.4398 24.614 55.1175 21.2504L52.3186 17.1956ZM74.1847 11.5091C66.4472 11.3528 58.8385 13.3331 52.3186 17.1956L55.1175 21.2504C60.7951 17.8869 67.4148 16.1662 74.1372 16.302L74.1847 11.5091ZM95.7917 18.084C89.4428 13.9518 81.9227 11.6654 74.1847 11.5091L74.1372 16.302C80.8592 16.4378 87.3811 18.4235 92.8807 22.003L95.7917 18.084ZM109.839 34.7216C107.029 28.0069 102.141 22.2165 95.7917 18.084L92.8807 22.003C98.3801 25.5824 102.614 30.5971 105.048 36.4144L109.839 34.7216ZM111.576 55.7938C113.251 48.7696 112.648 41.4361 109.839 34.7216L105.048 36.4144C107.482 42.2321 108.008 48.5949 106.553 54.699L111.576 55.7938ZM103.671 70.9428C107.529 66.5555 110.247 61.3712 111.576 55.7938L106.553 54.699C105.398 59.5463 103.035 64.0568 99.6752 67.8767L103.671 70.9428ZM114.946 79.7322C112.058 74.8357 108.009 70.6416 103.133 67.4534L100.213 71.3661C104.436 74.1279 107.943 77.7603 110.445 82.0012L114.946 79.7322ZM119.624 100.42C120.3 93.2502 118.674 86.0502 114.946 79.7322L110.445 82.0012C113.673 87.4731 115.085 93.7158 114.499 99.9417L119.624 100.42ZM111.163 120.012C116.002 114.406 118.949 107.589 119.624 100.42L114.499 99.9417C113.912 106.168 111.352 112.098 107.138 116.978L111.163 120.012ZM92.4278 131.924C99.8036 129.762 106.323 125.617 111.163 120.012L107.138 116.978C102.924 121.859 97.2474 125.468 90.8288 127.349L92.4278 131.924ZM69.7114 132.151C77.1465 134.166 85.0517 134.085 92.4278 131.924L90.8288 127.349C84.4105 129.23 77.5418 129.297 71.0918 127.549L69.7114 132.151ZM50.6643 120.592C55.6463 126.113 62.2758 130.135 69.7114 132.151L71.0918 127.549C64.6423 125.8 58.8991 122.314 54.5854 117.534L50.6643 120.592ZM66.9261 104.763L50.9592 117.217L54.2905 120.909L70.2574 108.455L66.9261 104.763ZM76.926 108.947C74.4337 108.271 72.2167 106.925 70.5523 105.08L66.6312 108.138C68.9639 110.724 72.0672 112.606 75.5455 113.549L76.926 108.947ZM84.5637 108.868C82.0768 109.597 79.4187 109.622 76.926 108.947L75.5455 113.549C79.0234 114.491 82.718 114.453 86.1627 113.443L84.5637 108.868ZM90.8854 104.848C89.2515 106.741 87.0509 108.14 84.5637 108.868L86.1627 113.443C89.6071 112.434 92.6505 110.498 94.9099 107.882L90.8854 104.848ZM93.7367 98.2509C93.5098 100.659 92.5191 102.956 90.8854 104.848L94.9099 107.882C97.1695 105.265 98.5464 102.081 98.8622 98.7291L93.7367 98.2509ZM92.1712 91.3194C93.417 93.4312 93.9636 95.8427 93.7367 98.2509L98.8622 98.7291C99.178 95.3771 98.4179 92.0083 96.6729 89.0504L92.1712 91.3194ZM86.7347 86.3734C89.0342 87.4867 90.9255 89.2078 92.1712 91.3194L96.6729 89.0504C94.9278 86.0924 92.2784 83.6823 89.0618 82.1251L86.7347 86.3734ZM79.2375 85.0666C81.8262 84.8032 84.4347 85.26 86.7346 86.3734L89.0618 82.1251C85.8455 80.5681 82.2099 79.9352 78.6163 80.3007L79.2375 85.0666ZM72.1976 87.8617C74.1976 86.3018 76.6484 85.3299 79.2375 85.0666L78.6163 80.3007C75.023 80.6662 71.6309 82.0136 68.8663 84.1699L72.1976 87.8617ZM64.252 82.7581L68.5714 87.5449L72.4925 84.4867L68.1731 79.6998L64.252 82.7581Z" fill="#0078BF" mask="url(#path-2-outside-1_312_295)"/>
</svg>
