<svg width="161" height="102" viewBox="0 0 161 102" fill="none" xmlns="http://www.w3.org/2000/svg">
<path d="M0.00012207 101.35H25.6181V86.9917C25.6181 84.4351 26.1217 81.9036 27.1 79.5417C28.0784 77.1797 29.5124 75.0336 31.3202 73.2259C33.1279 71.4181 35.274 69.9841 37.636 69.0058C39.9979 68.0274 42.5294 67.5238 45.086 67.5238C47.6426 67.5238 50.174 68.0274 52.536 69.0058C54.8979 69.9841 57.044 71.4181 58.8518 73.2259C60.6596 75.0336 62.0936 77.1797 63.0719 79.5417C64.0503 81.9036 64.5538 84.4351 64.5538 86.9917V101.35H90.1718V86.9454C90.1658 81.0404 88.9997 75.1939 86.7399 69.738C84.4742 64.268 81.1531 59.2978 76.9665 55.1111C72.7799 50.9245 67.8096 47.6035 62.3396 45.3377C56.8695 43.072 51.0068 41.9058 45.086 41.9058C39.1652 41.9058 33.3024 43.072 27.8323 45.3377C22.3623 47.6035 17.392 50.9245 13.2054 55.1111C9.01883 59.2978 5.69781 64.268 3.43205 69.738C1.17225 75.1939 0.00617326 81.0404 0.00012207 86.9454L0.00012207 101.35Z" fill="white"/>
<path d="M70.7311 101.35H96.3491V86.9917C96.3491 84.4351 96.8526 81.9036 97.831 79.5417C98.8093 77.1797 100.243 75.0336 102.051 73.2259C103.859 71.4181 106.005 69.9841 108.367 69.0058C110.729 68.0274 113.26 67.5238 115.817 67.5238C118.374 67.5238 120.905 68.0274 123.267 69.0058C125.629 69.9841 127.775 71.4181 129.583 73.2259C131.391 75.0336 132.825 77.1797 133.803 79.5417C134.781 81.9036 135.285 84.4351 135.285 86.9917V101.35H160.903V86.9454C160.897 81.0404 159.731 75.1939 157.471 69.738C155.205 64.268 151.884 59.2978 147.697 55.1111C143.511 50.9245 138.541 47.6035 133.071 45.3377C127.6 43.072 121.738 41.9058 115.817 41.9058C109.896 41.9058 104.033 43.072 98.5633 45.3377C93.0933 47.6035 88.123 50.9245 83.9364 55.1111C79.7498 59.2978 76.4288 64.268 74.163 69.738C71.9032 75.1939 70.7371 81.0404 70.7311 86.9454V101.35Z" fill="white"/>
<rect x="102.45" width="26.5097" height="26.5097" fill="white"/>
<rect x="31.7191" width="26.5097" height="26.5097" fill="white"/>
</svg>
