<svg width="638" height="626" viewBox="0 0 638 626" fill="none" xmlns="http://www.w3.org/2000/svg">
<path d="M319.857 28.6045L320.526 67.1309L281.727 67.8039L281.058 29.2775L319.857 28.6045Z" fill="#0078BF" stroke="#0078BF" stroke-width="51"/>
<path d="M319.093 148.867L319.093 156.599C319.09 228.551 263.763 286.368 194.231 287.574C133.064 288.635 80.2452 244.416 67.606 184.074L105.356 183.42C117.062 221.612 152.751 249.514 193.594 248.806C242.957 247.949 281.456 207.277 282.571 158.692L282.582 158.231L282.576 157.769L282.316 138.1L318.895 137.465L319.093 148.867Z" fill="#0078BF" stroke="#0078BF" stroke-width="51"/>
<mask id="path-3-inside-1_362_826" fill="white">
<path d="M188.19 312.513C215.394 312.513 241.001 319.479 263.322 331.716V320.672H353.128V625.914H263.322V606.649C241.001 618.886 215.394 625.852 188.19 625.852C101.764 625.852 31.4473 555.568 31.4473 469.182C31.4475 382.797 101.764 312.514 188.19 312.513ZM188.19 402.277C151.296 402.277 121.253 432.306 121.253 469.182C121.253 506.059 151.296 536.088 188.19 536.089C225.085 536.089 255.128 506.059 255.128 469.182C255.128 432.306 225.085 402.277 188.19 402.277Z"/>
</mask>
<path d="M188.19 312.513C215.394 312.513 241.001 319.479 263.322 331.716V320.672H353.128V625.914H263.322V606.649C241.001 618.886 215.394 625.852 188.19 625.852C101.764 625.852 31.4473 555.568 31.4473 469.182C31.4475 382.797 101.764 312.514 188.19 312.513ZM188.19 402.277C151.296 402.277 121.253 432.306 121.253 469.182C121.253 506.059 151.296 536.088 188.19 536.089C225.085 536.089 255.128 506.059 255.128 469.182C255.128 432.306 225.085 402.277 188.19 402.277Z" fill="#0078BF"/>
<path d="M188.19 312.513V261.513H188.19L188.19 312.513ZM263.322 331.716L238.805 376.436L314.322 417.836V331.716H263.322ZM263.322 320.672V269.672H212.322V320.672H263.322ZM353.128 320.672H404.128V269.672H353.128V320.672ZM353.128 625.914V676.914H404.128V625.914H353.128ZM263.322 625.914H212.322V676.914H263.322V625.914ZM263.322 606.649H314.322V520.528L238.805 561.929L263.322 606.649ZM188.19 625.852L188.19 676.852H188.19V625.852ZM31.4473 469.182L-19.5527 469.182V469.182H31.4473ZM188.19 402.277V351.277H188.19L188.19 402.277ZM121.253 469.182L70.2529 469.182V469.182H121.253ZM188.19 536.089L188.19 587.089H188.19V536.089ZM255.128 469.182H306.128V469.182L255.128 469.182ZM188.19 312.513V363.513C206.587 363.513 223.789 368.203 238.805 376.436L263.322 331.716L287.839 286.995C258.214 270.754 224.201 261.513 188.19 261.513V312.513ZM263.322 331.716H314.322V320.672H263.322H212.322V331.716H263.322ZM263.322 320.672V371.672H353.128V320.672V269.672H263.322V320.672ZM353.128 320.672H302.128V625.914H353.128H404.128V320.672H353.128ZM353.128 625.914V574.914H263.322V625.914V676.914H353.128V625.914ZM263.322 625.914H314.322V606.649H263.322H212.322V625.914H263.322ZM263.322 606.649L238.805 561.929C223.787 570.162 206.586 574.852 188.19 574.852V625.852V676.852C224.202 676.852 258.215 667.611 287.839 651.37L263.322 606.649ZM188.19 625.852L188.191 574.852C129.908 574.852 82.4473 527.379 82.4473 469.182H31.4473H-19.5527C-19.5527 583.757 73.62 676.852 188.19 676.852L188.19 625.852ZM31.4473 469.182L82.4473 469.183C82.4474 410.986 129.908 363.514 188.191 363.513L188.19 312.513L188.19 261.513C73.6204 261.514 -19.5524 354.608 -19.5527 469.182L31.4473 469.182ZM188.19 402.277L188.19 351.277C123.153 351.277 70.2533 404.116 70.2529 469.182L121.253 469.182L172.253 469.183C172.253 460.495 179.44 453.277 188.191 453.277L188.19 402.277ZM121.253 469.182H70.2529C70.2529 534.248 123.152 587.088 188.19 587.089L188.19 536.089L188.191 485.089C179.44 485.089 172.253 477.87 172.253 469.182H121.253ZM188.19 536.089V587.089C253.229 587.089 306.128 534.248 306.128 469.182H255.128H204.128C204.128 477.87 196.941 485.089 188.19 485.089V536.089ZM255.128 469.182L306.128 469.182C306.128 404.116 253.228 351.277 188.19 351.277V402.277V453.277C196.941 453.277 204.128 460.495 204.128 469.183L255.128 469.182Z" fill="#0078BF" mask="url(#path-3-inside-1_362_826)"/>
<mask id="path-5-inside-2_362_826" fill="white">
<path d="M387.717 46.7614C448.822 -14.3609 548.256 -14.3605 609.407 46.7155C621.119 58.4217 630.563 71.5624 637.784 85.5358L565.477 157.855C565.477 157.814 565.476 157.773 565.476 157.732L498.833 224.366C515.766 224.289 532.676 217.848 545.617 205.05L609.176 268.532C548.025 329.377 448.821 329.331 387.763 268.347C326.658 207.271 326.612 107.884 387.717 46.7614ZM505.232 91.0016C485.944 89.0868 465.978 95.501 451.229 110.244C436.463 124.976 430.049 144.947 431.984 164.24L505.232 91.0016Z"/>
</mask>
<path d="M387.717 46.7614C448.822 -14.3609 548.256 -14.3605 609.407 46.7155C621.119 58.4217 630.563 71.5624 637.784 85.5358L565.477 157.855C565.477 157.814 565.476 157.773 565.476 157.732L498.833 224.366C515.766 224.289 532.676 217.848 545.617 205.05L609.176 268.532C548.025 329.377 448.821 329.331 387.763 268.347C326.658 207.271 326.612 107.884 387.717 46.7614ZM505.232 91.0016C485.944 89.0868 465.978 95.501 451.229 110.244C436.463 124.976 430.049 144.947 431.984 164.24L505.232 91.0016Z" fill="#0078BF"/>
<path d="M387.717 46.7614L351.649 10.7041L351.649 10.7041L387.717 46.7614ZM609.407 46.7155L645.461 10.6446L645.454 10.6377L645.448 10.6309L609.407 46.7155ZM637.784 85.5358L673.85 121.595L700.205 95.2356L683.091 62.121L637.784 85.5358ZM565.477 157.855L514.477 157.718L514.144 281.326L601.542 193.915L565.477 157.855ZM565.476 157.732L616.476 157.777L616.585 34.5097L529.416 121.667L565.476 157.732ZM498.833 224.366L462.773 188.301L375.134 275.929L499.065 275.365L498.833 224.366ZM545.617 205.05L581.658 168.966L545.796 133.148L509.757 168.787L545.617 205.05ZM609.176 268.532L645.148 304.685L681.413 268.601L645.216 232.448L609.176 268.532ZM387.763 268.347L351.709 304.418L351.716 304.425L351.723 304.432L387.763 268.347ZM505.232 91.0016L541.292 127.066L617.473 50.894L510.27 40.2511L505.232 91.0016ZM451.229 110.244L487.251 146.346L487.267 146.331L487.283 146.315L451.229 110.244ZM431.984 164.24L381.239 169.331L391.978 276.362L468.045 200.305L431.984 164.24ZM387.717 46.7614L423.784 82.8187C464.966 41.6254 532.122 41.6058 573.367 82.8001L609.407 46.7155L645.448 10.6309C564.39 -70.3269 432.678 -70.3473 351.649 10.7041L387.717 46.7614ZM609.407 46.7155L573.353 82.7864C581.244 90.6731 587.601 99.5165 592.477 108.951L637.784 85.5358L683.091 62.121C673.524 43.6083 660.994 26.1703 645.461 10.6446L609.407 46.7155ZM637.784 85.5358L601.719 49.4763L529.411 121.796L565.477 157.855L601.542 193.915L673.85 121.595L637.784 85.5358ZM565.477 157.855L616.476 157.992C616.477 157.731 616.476 157.517 616.475 157.381C616.474 157.311 616.473 157.253 616.473 157.215C616.472 157.178 616.472 157.147 616.472 157.142C616.472 157.127 616.472 157.144 616.472 157.161C616.473 157.182 616.473 157.222 616.473 157.273C616.474 157.374 616.476 157.552 616.476 157.777L565.476 157.732L514.476 157.687C514.476 157.812 514.476 157.923 514.476 158.016C514.477 158.11 514.478 158.19 514.478 158.252C514.478 158.284 514.479 158.312 514.479 158.336C514.479 158.359 514.48 158.38 514.48 158.396C514.48 158.411 514.48 158.424 514.48 158.432C514.48 158.436 514.48 158.44 514.48 158.442C514.48 158.443 514.48 158.444 514.48 158.445C514.48 158.445 514.48 158.446 514.48 158.446C514.48 158.447 514.48 158.443 514.48 158.436C514.48 158.429 514.48 158.418 514.48 158.403C514.48 158.375 514.479 158.327 514.478 158.268C514.478 158.208 514.477 158.131 514.477 158.04C514.477 157.949 514.477 157.84 514.477 157.718L565.477 157.855ZM565.476 157.732L529.416 121.667L462.773 188.301L498.833 224.366L534.893 260.431L601.536 193.797L565.476 157.732ZM498.833 224.366L499.065 275.365C528.759 275.23 558.638 263.9 581.478 241.314L545.617 205.05L509.757 168.787C506.715 171.795 502.773 173.347 498.601 173.366L498.833 224.366ZM545.617 205.05L509.577 241.135L573.135 304.616L609.176 268.532L645.216 232.448L581.658 168.966L545.617 205.05ZM609.176 268.532L573.204 232.379C531.96 273.417 464.961 273.37 423.803 232.263L387.763 268.347L351.723 304.432C432.682 385.292 564.089 385.337 645.148 304.685L609.176 268.532ZM387.763 268.347L423.817 232.276C382.628 191.107 382.601 124.014 423.784 82.8187L387.717 46.7614L351.649 10.7041C270.623 91.7539 270.688 223.435 351.709 304.418L387.763 268.347ZM505.232 91.0016L510.27 40.2511C476.475 36.8961 441.218 48.1421 415.175 74.1729L451.229 110.244L487.283 146.315C490.739 142.86 495.412 141.278 500.193 141.752L505.232 91.0016ZM451.229 110.244L415.206 74.1412C389.101 100.188 377.845 135.5 381.239 169.331L431.984 164.24L482.73 159.149C482.253 154.394 483.826 149.764 487.251 146.346L451.229 110.244ZM431.984 164.24L468.045 200.305L541.292 127.066L505.232 91.0016L469.171 54.937L395.924 128.175L431.984 164.24Z" fill="#0078BF" mask="url(#path-5-inside-2_362_826)"/>
<mask id="path-7-inside-3_362_826" fill="white">
<path d="M471.208 312.493C499.015 312.493 525.155 319.77 547.821 332.517V320.618H637.627V625.859H547.821V605.808C525.155 618.555 499.015 625.832 471.208 625.832C384.782 625.832 314.465 555.548 314.465 469.162C314.465 382.777 384.782 312.493 471.208 312.493ZM471.208 402.257C434.314 402.257 404.271 432.285 404.271 469.162C404.271 506.039 434.314 536.068 471.208 536.068C508.102 536.068 538.146 506.039 538.146 469.162C538.146 432.285 508.102 402.257 471.208 402.257Z"/>
</mask>
<path d="M471.208 312.493C499.015 312.493 525.155 319.77 547.821 332.517V320.618H637.627V625.859H547.821V605.808C525.155 618.555 499.015 625.832 471.208 625.832C384.782 625.832 314.465 555.548 314.465 469.162C314.465 382.777 384.782 312.493 471.208 312.493ZM471.208 402.257C434.314 402.257 404.271 432.285 404.271 469.162C404.271 506.039 434.314 536.068 471.208 536.068C508.102 536.068 538.146 506.039 538.146 469.162C538.146 432.285 508.102 402.257 471.208 402.257Z" fill="#0078BF"/>
<path d="M471.208 312.493V261.493H471.208L471.208 312.493ZM547.821 332.517L522.822 376.969L598.821 419.709V332.517H547.821ZM547.821 320.618V269.618H496.821V320.618H547.821ZM637.627 320.618H688.627V269.618H637.627V320.618ZM637.627 625.859V676.859H688.627V625.859H637.627ZM547.821 625.859H496.821V676.859H547.821V625.859ZM547.821 605.808H598.821V518.615L522.822 561.355L547.821 605.808ZM471.208 625.832L471.208 676.832H471.208V625.832ZM314.465 469.162L263.465 469.162V469.162H314.465ZM471.208 402.257V351.257H471.208L471.208 402.257ZM404.271 469.162L353.271 469.162V469.162H404.271ZM471.208 536.068L471.208 587.068H471.208V536.068ZM538.146 469.162H589.146V469.162L538.146 469.162ZM471.208 312.493V363.493C490.011 363.493 507.57 368.392 522.822 376.969L547.821 332.517L572.82 288.064C542.739 271.147 508.019 261.493 471.208 261.493V312.493ZM547.821 332.517H598.821V320.618H547.821H496.821V332.517H547.821ZM547.821 320.618V371.618H637.627V320.618V269.618H547.821V320.618ZM637.627 320.618H586.627V625.859H637.627H688.627V320.618H637.627ZM637.627 625.859V574.859H547.821V625.859V676.859H637.627V625.859ZM547.821 625.859H598.821V605.808H547.821H496.821V625.859H547.821ZM547.821 605.808L522.822 561.355C507.569 569.933 490.01 574.832 471.208 574.832V625.832V676.832C508.021 676.832 542.74 667.176 572.82 650.26L547.821 605.808ZM471.208 625.832L471.208 574.832C412.926 574.832 365.465 527.359 365.465 469.162H314.465H263.465C263.465 583.737 356.638 676.832 471.208 676.832L471.208 625.832ZM314.465 469.162L365.465 469.162C365.465 410.966 412.926 363.493 471.208 363.493L471.208 312.493L471.208 261.493C356.638 261.493 263.465 354.587 263.465 469.162L314.465 469.162ZM471.208 402.257L471.208 351.257C406.171 351.257 353.271 404.096 353.271 469.162L404.271 469.162L455.271 469.162C455.271 460.475 462.457 453.257 471.208 453.257L471.208 402.257ZM404.271 469.162H353.271C353.271 534.228 406.17 587.068 471.208 587.068L471.208 536.068L471.208 485.068C462.458 485.068 455.271 477.85 455.271 469.162H404.271ZM471.208 536.068V587.068C536.246 587.068 589.146 534.229 589.146 469.162H538.146H487.146C487.146 477.849 479.959 485.068 471.208 485.068V536.068ZM538.146 469.162L589.146 469.162C589.146 404.095 536.245 351.257 471.208 351.257V402.257V453.257C479.96 453.257 487.146 460.476 487.146 469.162L538.146 469.162Z" fill="#0078BF" mask="url(#path-7-inside-3_362_826)"/>
</svg>
