<svg width="130" height="137" viewBox="0 0 130 137" fill="none" xmlns="http://www.w3.org/2000/svg">
<path d="M29.767 41.9051L11.99 60.6406L72.4505 124.361L90.2275 105.626L29.767 41.9051Z" fill="white"/>
<path d="M55.4131 14.88L37.636 33.6157L98.0965 97.3363L115.874 78.6006L55.4131 14.88Z" fill="white"/>
<path d="M94.5231 -0.000216079L76.7461 18.7354L94.4774 37.4227L112.254 18.6871L94.5231 -0.000216079Z" fill="white"/>
<path d="M112.269 18.6735L94.4916 37.4092L112.223 56.0965L130 37.3608L112.269 18.6735Z" fill="white"/>
<path d="M73.5864 123.121L73.6124 123.149L82.5412 113.738L81.4008 112.536L65.2149 95.4777L56.2861 104.888L56.2472 104.847C48.9123 111.976 37.612 111.963 30.6789 104.656C23.5644 97.1577 23.7199 84.7973 31.0158 77.0943C31.1454 76.9577 31.2751 76.8484 31.4047 76.7118L39.4003 68.285L23.1885 51.199C23.1885 51.199 23.1627 51.2127 23.1498 51.2263L22.0351 50.0518L14.0654 58.4513C13.9358 58.6015 13.8062 58.7108 13.6766 58.8473C-3.42941 76.8757 -3.79226 105.844 12.8731 123.408C29.3571 140.781 56.4156 140.59 73.5605 123.135L73.5864 123.121Z" fill="white"/>
</svg>
