<svg width="39" height="28" viewBox="0 0 39 28" fill="none" xmlns="http://www.w3.org/2000/svg">
<g id="Union">
<mask id="path-1-inside-1_378_3047" fill="white">
<path d="M34.0791 0.325195C36.1281 0.325368 37.5936 1.69454 38.0615 3.35352C38.1789 3.73688 38.2431 4.14361 38.2432 4.56543V23.5947L38.2373 23.8076C38.2231 24.0881 38.1796 24.361 38.1123 24.624C37.7262 26.2675 36.3692 27.6708 34.4297 27.8213L34.082 27.835H4.75879L4.41113 27.8213C2.46469 27.6701 1.103 26.2576 0.722656 24.6064C0.657966 24.3489 0.617399 24.0817 0.603516 23.8076L0.597656 23.5947V4.56543C0.59767 4.31405 0.621096 4.0681 0.664062 3.8291C0.666009 3.81705 0.667872 3.805 0.669922 3.79297C0.67561 3.76287 0.68214 3.73299 0.688477 3.70312C1.03786 1.89105 2.56332 0.325314 4.75488 0.325195H34.0791ZM22.2197 21.0127C20.636 22.4715 18.198 22.4714 16.6143 21.0127L9.70117 14.6436L2.5166 21.2646C1.5641 22.1422 1.28886 23.3258 1.52246 24.3906C1.87889 25.8339 3.1811 26.9042 4.73438 26.9043H34.1055C35.6661 26.9043 36.9732 25.8237 37.3223 24.3701C37.5479 23.3106 37.2707 22.1366 36.3242 21.2646L29.1348 14.6406L22.2197 21.0127ZM1.4248 21.2451C1.51267 21.1282 1.60585 21.0123 1.70898 20.9014L1.95605 20.6562L9.09082 14.0811L1.95215 7.50391C1.7522 7.31967 1.57806 7.12323 1.4248 6.91992V21.2451ZM37.415 6.91211C37.2604 7.11823 37.0843 7.31731 36.8818 7.50391L29.7461 14.0781L36.8857 20.6562C37.0868 20.8415 37.2612 21.0396 37.415 21.2441V6.91211Z"/>
</mask>
<path d="M34.0791 0.325195C36.1281 0.325368 37.5936 1.69454 38.0615 3.35352C38.1789 3.73688 38.2431 4.14361 38.2432 4.56543V23.5947L38.2373 23.8076C38.2231 24.0881 38.1796 24.361 38.1123 24.624C37.7262 26.2675 36.3692 27.6708 34.4297 27.8213L34.082 27.835H4.75879L4.41113 27.8213C2.46469 27.6701 1.103 26.2576 0.722656 24.6064C0.657966 24.3489 0.617399 24.0817 0.603516 23.8076L0.597656 23.5947V4.56543C0.59767 4.31405 0.621096 4.0681 0.664062 3.8291C0.666009 3.81705 0.667872 3.805 0.669922 3.79297C0.67561 3.76287 0.68214 3.73299 0.688477 3.70312C1.03786 1.89105 2.56332 0.325314 4.75488 0.325195H34.0791ZM22.2197 21.0127C20.636 22.4715 18.198 22.4714 16.6143 21.0127L9.70117 14.6436L2.5166 21.2646C1.5641 22.1422 1.28886 23.3258 1.52246 24.3906C1.87889 25.8339 3.1811 26.9042 4.73438 26.9043H34.1055C35.6661 26.9043 36.9732 25.8237 37.3223 24.3701C37.5479 23.3106 37.2707 22.1366 36.3242 21.2646L29.1348 14.6406L22.2197 21.0127ZM1.4248 21.2451C1.51267 21.1282 1.60585 21.0123 1.70898 20.9014L1.95605 20.6562L9.09082 14.0811L1.95215 7.50391C1.7522 7.31967 1.57806 7.12323 1.4248 6.91992V21.2451ZM37.415 6.91211C37.2604 7.11823 37.0843 7.31731 36.8818 7.50391L29.7461 14.0781L36.8857 20.6562C37.0868 20.8415 37.2612 21.0396 37.415 21.2441V6.91211Z" fill="white"/>
<path d="M34.0791 0.325195L34.0792 -0.50217H34.0791V0.325195ZM38.0615 3.35352L37.2652 3.57812L37.2677 3.58696L37.2704 3.59574L38.0615 3.35352ZM38.2432 4.56543H39.0705V4.56538L38.2432 4.56543ZM38.2432 23.5947L39.0702 23.6175L39.0705 23.6061V23.5947H38.2432ZM38.2373 23.8076L39.0636 23.8495L39.0641 23.8399L39.0644 23.8304L38.2373 23.8076ZM38.1123 24.624L37.3108 24.4188L37.3088 24.4268L37.3069 24.4348L38.1123 24.624ZM34.4297 27.8213L34.4622 28.648L34.478 28.6474L34.4937 28.6462L34.4297 27.8213ZM34.082 27.835V28.6623H34.0983L34.1145 28.6617L34.082 27.835ZM4.75879 27.835L4.72628 28.6617L4.74253 28.6623H4.75879V27.835ZM4.41113 27.8213L4.34708 28.6462L4.36283 28.6474L4.37862 28.648L4.41113 27.8213ZM0.722656 24.6064L1.52891 24.4207L1.52708 24.4128L1.52509 24.4049L0.722656 24.6064ZM0.603516 23.8076L-0.223537 23.8304L-0.223274 23.8399L-0.222791 23.8495L0.603516 23.8076ZM0.597656 23.5947H-0.229709V23.6061L-0.229396 23.6175L0.597656 23.5947ZM0.597656 4.56543L-0.229709 4.56538V4.56543H0.597656ZM0.664062 3.8291L1.47837 3.97549L1.47967 3.96828L1.48084 3.96105L0.664062 3.8291ZM0.669922 3.79297L-0.143056 3.63935L-0.144434 3.64664L-0.145681 3.65395L0.669922 3.79297ZM0.688477 3.70312L1.49783 3.87484L1.49942 3.86731L1.50088 3.85976L0.688477 3.70312ZM4.75488 0.325195V-0.50217H4.75484L4.75488 0.325195ZM22.2197 21.0127L22.7803 21.6212L22.7804 21.6211L22.2197 21.0127ZM16.6143 21.0127L16.0537 21.6212L16.0537 21.6213L16.6143 21.0127ZM9.70117 14.6436L10.2618 14.0351L9.70109 13.5185L9.14048 14.0351L9.70117 14.6436ZM2.5166 21.2646L3.07722 21.8731L3.07729 21.8731L2.5166 21.2646ZM1.52246 24.3906L0.714315 24.5679L0.716634 24.5785L0.719229 24.589L1.52246 24.3906ZM4.73438 26.9043L4.73435 27.7317H4.73438V26.9043ZM34.1055 26.9043V27.7317H34.1055L34.1055 26.9043ZM37.3223 24.3701L38.1268 24.5633L38.1293 24.5529L38.1315 24.5425L37.3223 24.3701ZM36.3242 21.2646L35.7636 21.8731L35.7636 21.8731L36.3242 21.2646ZM29.1348 14.6406L29.6954 14.0322L29.1347 13.5156L28.5741 14.0322L29.1348 14.6406ZM1.4248 21.2451H0.597439V23.7231L2.08621 21.7422L1.4248 21.2451ZM1.70898 20.9014L1.12627 20.314L1.11436 20.3258L1.10293 20.3381L1.70898 20.9014ZM1.95605 20.6562L1.39536 20.0478L1.38416 20.0582L1.37335 20.0689L1.95605 20.6562ZM9.09082 14.0811L9.65151 14.6895L10.3118 14.081L9.65143 13.4726L9.09082 14.0811ZM1.95215 7.50391L1.39151 8.11236L1.39153 8.11238L1.95215 7.50391ZM1.4248 6.91992L2.08548 6.42189L0.597439 4.44789V6.91992H1.4248ZM37.415 6.91211H38.2424V4.43036L36.7532 6.41563L37.415 6.91211ZM36.8818 7.50391L37.4424 8.11239L37.4425 8.11235L36.8818 7.50391ZM29.7461 14.0781L29.1855 13.4696L28.525 14.0781L29.1855 14.6866L29.7461 14.0781ZM36.8857 20.6562L37.4464 20.0478L37.4464 20.0478L36.8857 20.6562ZM37.415 21.2441L36.7538 21.7415L38.2424 23.7206V21.2441H37.415ZM34.0791 0.325195L34.079 1.15256C35.7154 1.1527 36.8859 2.23336 37.2652 3.57812L38.0615 3.35352L38.8578 3.12891C38.3013 1.15573 36.5407 -0.501962 34.0792 -0.50217L34.0791 0.325195ZM38.0615 3.35352L37.2704 3.59574C37.3645 3.90294 37.4158 4.22813 37.4158 4.56548L38.2432 4.56543L39.0705 4.56538C39.0705 4.05909 38.9933 3.57081 38.8526 3.11129L38.0615 3.35352ZM38.2432 4.56543H37.4158V23.5947H38.2432H39.0705V4.56543H38.2432ZM38.2432 23.5947L37.4161 23.572L37.4103 23.7849L38.2373 23.8076L39.0644 23.8304L39.0702 23.6175L38.2432 23.5947ZM38.2373 23.8076L37.411 23.7658C37.3997 23.988 37.3652 24.2062 37.3108 24.4188L38.1123 24.624L38.9138 24.8292C38.9941 24.5158 39.0465 24.1881 39.0636 23.8495L38.2373 23.8076ZM38.1123 24.624L37.3069 24.4348C36.9932 25.7698 35.9044 26.877 34.3657 26.9964L34.4297 27.8213L34.4937 28.6462C36.8339 28.4646 38.4591 26.7651 38.9177 24.8133L38.1123 24.624ZM34.4297 27.8213L34.3972 26.9946L34.0495 27.0082L34.082 27.835L34.1145 28.6617L34.4622 28.648L34.4297 27.8213ZM34.082 27.835V27.0076H4.75879V27.835V28.6623H34.082V27.835ZM4.75879 27.835L4.7913 27.0082L4.44364 26.9946L4.41113 27.8213L4.37862 28.648L4.72628 28.6617L4.75879 27.835ZM4.41113 27.8213L4.47519 26.9964C2.93036 26.8764 1.83775 25.7615 1.52891 24.4207L0.722656 24.6064L-0.083595 24.7922C0.368257 26.7537 1.99902 28.4638 4.34708 28.6462L4.41113 27.8213ZM0.722656 24.6064L1.52509 24.4049C1.47345 24.1993 1.44096 23.9856 1.42982 23.7658L0.603516 23.8076L-0.222791 23.8495C-0.206158 24.1779 -0.157521 24.4986 -0.0797754 24.808L0.722656 24.6064ZM0.603516 23.8076L1.43057 23.7849L1.42471 23.572L0.597656 23.5947L-0.229396 23.6175L-0.223537 23.8304L0.603516 23.8076ZM0.597656 23.5947H1.42502V4.56543H0.597656H-0.229709V23.5947H0.597656ZM0.597656 4.56543L1.42502 4.56548C1.42503 4.36561 1.44365 4.16866 1.47837 3.97549L0.664062 3.8291L-0.150249 3.68271C-0.201455 3.96754 -0.229692 4.26249 -0.229709 4.56538L0.597656 4.56543ZM0.664062 3.8291L1.48084 3.96105C1.48403 3.94132 1.48424 3.93951 1.48553 3.93198L0.669922 3.79297L-0.145681 3.65395C-0.148499 3.67049 -0.152008 3.69279 -0.152713 3.69715L0.664062 3.8291ZM0.669922 3.79297L1.4829 3.94659C1.48636 3.92827 1.49003 3.91161 1.49783 3.87484L0.688477 3.70312L-0.120874 3.53141C-0.125746 3.55438 -0.135142 3.59746 -0.143056 3.63935L0.669922 3.79297ZM0.688477 3.70312L1.50088 3.85976C1.78452 2.38866 3.00719 1.15266 4.75493 1.15256L4.75488 0.325195L4.75484 -0.50217C2.11945 -0.502028 0.291198 1.39343 -0.123926 3.54649L0.688477 3.70312ZM4.75488 0.325195V1.15256H34.0791V0.325195V-0.50217H4.75488V0.325195ZM22.2197 21.0127L21.6592 20.4042C20.3922 21.5712 18.4418 21.5711 17.1748 20.4041L16.6143 21.0127L16.0537 21.6213C17.9542 23.3717 20.8798 23.3718 22.7803 21.6212L22.2197 21.0127ZM16.6143 21.0127L17.1749 20.4042L10.2618 14.0351L9.70117 14.6436L9.14056 15.252L16.0537 21.6212L16.6143 21.0127ZM9.70117 14.6436L9.14048 14.0351L1.95591 20.6562L2.5166 21.2646L3.07729 21.8731L10.2619 15.252L9.70117 14.6436ZM2.5166 21.2646L1.95598 20.6562C0.769933 21.7489 0.422869 23.2395 0.714315 24.5679L1.52246 24.3906L2.33061 24.2133C2.15485 23.4122 2.35826 22.5355 3.07722 21.8731L2.5166 21.2646ZM1.52246 24.3906L0.719229 24.589C1.16463 26.3925 2.79121 27.7316 4.73435 27.7317L4.73438 26.9043L4.7344 26.0769C3.571 26.0769 2.59315 25.2752 2.32569 24.1923L1.52246 24.3906ZM4.73438 26.9043V27.7317H34.1055V26.9043V26.0769H4.73438V26.9043ZM34.1055 26.9043L34.1055 27.7317C36.0579 27.7316 37.6905 26.3798 38.1268 24.5633L37.3223 24.3701L36.5178 24.1769C36.2558 25.2676 35.2744 26.0769 34.1055 26.0769L34.1055 26.9043ZM37.3223 24.3701L38.1315 24.5425C38.413 23.2205 38.0634 21.742 36.8848 20.6562L36.3242 21.2646L35.7636 21.8731C36.478 22.5313 36.6828 23.4007 36.5131 24.1978L37.3223 24.3701ZM36.3242 21.2646L36.8848 20.6562L29.6954 14.0322L29.1348 14.6406L28.5741 15.2491L35.7636 21.8731L36.3242 21.2646ZM29.1348 14.6406L28.5741 14.0322L21.6591 20.4043L22.2197 21.0127L22.7804 21.6211L29.6954 15.2491L29.1348 14.6406ZM1.4248 21.2451L2.08621 21.7422C2.16343 21.6394 2.2378 21.5477 2.31504 21.4646L1.70898 20.9014L1.10293 20.3381C0.973896 20.477 0.861905 20.617 0.763403 20.748L1.4248 21.2451ZM1.70898 20.9014L2.29169 21.4887L2.53876 21.2436L1.95605 20.6562L1.37335 20.0689L1.12627 20.314L1.70898 20.9014ZM1.95605 20.6562L2.51675 21.2647L9.65151 14.6895L9.09082 14.0811L8.53013 13.4726L1.39536 20.0478L1.95605 20.6562ZM9.09082 14.0811L9.65143 13.4726L2.51276 6.89543L1.95215 7.50391L1.39153 8.11238L8.53021 14.6895L9.09082 14.0811ZM1.95215 7.50391L2.51279 6.89545C2.35257 6.74783 2.21146 6.58901 2.08548 6.42189L1.4248 6.91992L0.764126 7.41796C0.944663 7.65745 1.15183 7.89152 1.39151 8.11236L1.95215 7.50391ZM1.4248 6.91992H0.597439V21.2451H1.4248H2.25217V6.91992H1.4248ZM37.415 6.91211L36.7532 6.41563C36.6262 6.58492 36.4835 6.74587 36.3212 6.89546L36.8818 7.50391L37.4425 8.11235C37.6851 7.88876 37.8946 7.65155 38.0769 7.40858L37.415 6.91211ZM36.8818 7.50391L36.3212 6.89542L29.1855 13.4696L29.7461 14.0781L30.3067 14.6866L37.4424 8.11239L36.8818 7.50391ZM29.7461 14.0781L29.1855 14.6866L36.3251 21.2647L36.8857 20.6562L37.4464 20.0478L30.3067 13.4697L29.7461 14.0781ZM36.8857 20.6562L36.3251 21.2647C36.4851 21.4121 36.6264 21.5721 36.7538 21.7415L37.415 21.2441L38.0763 20.7468C37.896 20.5071 37.6884 20.2709 37.4464 20.0478L36.8857 20.6562ZM37.415 21.2441H38.2424V6.91211H37.415H36.5877V21.2441H37.415Z" fill="black" mask="url(#path-1-inside-1_378_3047)"/>
</g>
</svg>
